<mxfile host="Electron" agent="Mozilla/5.0 (Windows NT 10.0; Win64; x64) AppleWebKit/537.36 (KHTML, like Gecko) draw.io/26.1.1 Chrome/132.0.6834.210 Electron/34.3.3 Safari/537.36" version="26.1.1">
  <diagram name="Страница — 1" id="by90twAEWOPmzAvwZsDc">
    <mxGraphModel dx="1434" dy="2005" grid="1" gridSize="10" guides="1" tooltips="1" connect="1" arrows="1" fold="1" page="1" pageScale="1" pageWidth="827" pageHeight="1169" math="0" shadow="0">
      <root>
        <mxCell id="0" />
        <mxCell id="1" parent="0" />
        <mxCell id="FgcChdvhsUmPIlyyczWO-1" value="Пакеты системы" style="shape=umlFrame;whiteSpace=wrap;html=1;pointerEvents=0;width=80;height=50;" parent="1" vertex="1">
          <mxGeometry x="40" y="-1120" width="1755" height="1170" as="geometry" />
        </mxCell>
        <mxCell id="p9DvUtl9EfDqDqhkNEsf-8" value="" style="group" parent="1" vertex="1" connectable="0">
          <mxGeometry x="120" y="-1040" width="532" height="380" as="geometry" />
        </mxCell>
        <mxCell id="p9DvUtl9EfDqDqhkNEsf-5" value="" style="shape=folder;fontStyle=1;spacingTop=10;tabWidth=40;tabHeight=14;tabPosition=left;html=1;whiteSpace=wrap;" parent="p9DvUtl9EfDqDqhkNEsf-8" vertex="1">
          <mxGeometry width="532" height="380" as="geometry" />
        </mxCell>
        <mxCell id="p9DvUtl9EfDqDqhkNEsf-14" value="" style="group" parent="p9DvUtl9EfDqDqhkNEsf-8" vertex="1" connectable="0">
          <mxGeometry x="10" y="20" width="170" height="230" as="geometry" />
        </mxCell>
        <mxCell id="p9DvUtl9EfDqDqhkNEsf-7" value="&lt;b&gt;Пользователи&lt;/b&gt;" style="text;html=1;align=center;verticalAlign=middle;resizable=0;points=[];autosize=1;strokeColor=none;fillColor=none;" parent="p9DvUtl9EfDqDqhkNEsf-14" vertex="1">
          <mxGeometry width="110" height="30" as="geometry" />
        </mxCell>
        <mxCell id="p9DvUtl9EfDqDqhkNEsf-9" value="&lt;p style=&quot;margin:0px;margin-top:4px;text-align:center;&quot;&gt;&lt;b&gt;User&lt;/b&gt;&lt;/p&gt;&lt;hr size=&quot;1&quot; style=&quot;border-style:solid;&quot;&gt;&lt;p style=&quot;margin:0px;margin-left:4px;&quot;&gt;+ Id: int&lt;br&gt;+ Name: string&lt;br&gt;+ Surname: string&lt;br&gt;+ Roles: List&amp;lt;Role&amp;gt;&lt;br&gt;+ PhoneNumber: string&lt;br&gt;+ Password: string&lt;/p&gt;&lt;hr size=&quot;1&quot; style=&quot;border-style:solid;&quot;&gt;&lt;p style=&quot;margin:0px;margin-left:4px;&quot;&gt;+ method(): Type&lt;/p&gt;" style="verticalAlign=top;align=left;overflow=fill;html=1;whiteSpace=wrap;" parent="p9DvUtl9EfDqDqhkNEsf-14" vertex="1">
          <mxGeometry x="10" y="40" width="160" height="190" as="geometry" />
        </mxCell>
        <mxCell id="p9DvUtl9EfDqDqhkNEsf-13" value="" style="group" parent="1" vertex="1" connectable="0">
          <mxGeometry x="827" y="-1040" width="532" height="380" as="geometry" />
        </mxCell>
        <mxCell id="p9DvUtl9EfDqDqhkNEsf-2" value="" style="shape=folder;fontStyle=1;spacingTop=10;tabWidth=40;tabHeight=14;tabPosition=left;html=1;whiteSpace=wrap;" parent="p9DvUtl9EfDqDqhkNEsf-13" vertex="1">
          <mxGeometry width="532" height="380" as="geometry" />
        </mxCell>
        <mxCell id="p9DvUtl9EfDqDqhkNEsf-10" value="Тренировки" style="text;align=center;fontStyle=1;verticalAlign=middle;spacingLeft=3;spacingRight=3;strokeColor=none;rotatable=0;points=[[0,0.5],[1,0.5]];portConstraint=eastwest;html=1;" parent="p9DvUtl9EfDqDqhkNEsf-13" vertex="1">
          <mxGeometry x="43" y="20" width="80" height="26" as="geometry" />
        </mxCell>
        <mxCell id="p9DvUtl9EfDqDqhkNEsf-11" value="&lt;p style=&quot;margin:0px;margin-top:4px;text-align:center;&quot;&gt;&lt;b&gt;Workout&lt;/b&gt;&lt;/p&gt;&lt;hr size=&quot;1&quot; style=&quot;border-style:solid;&quot;&gt;&lt;p style=&quot;margin:0px;margin-left:4px;&quot;&gt;+ Id: int&lt;br&gt;+ Name: string&lt;br&gt;+ UserID: int&lt;br&gt;+ ListExercise: List&amp;lt;Exercise&amp;gt;&lt;br&gt;+ Duration: double&lt;br&gt;+ DateTime: Date&lt;/p&gt;&lt;hr size=&quot;1&quot; style=&quot;border-style:solid;&quot;&gt;&lt;p style=&quot;margin:0px;margin-left:4px;&quot;&gt;+ method(): Type&lt;/p&gt;" style="verticalAlign=top;align=left;overflow=fill;html=1;whiteSpace=wrap;" parent="p9DvUtl9EfDqDqhkNEsf-13" vertex="1">
          <mxGeometry x="23" y="60" width="170" height="190" as="geometry" />
        </mxCell>
        <mxCell id="p9DvUtl9EfDqDqhkNEsf-12" value="&lt;p style=&quot;margin:0px;margin-top:4px;text-align:center;&quot;&gt;&lt;b&gt;Exercise&lt;/b&gt;&lt;/p&gt;&lt;hr size=&quot;1&quot; style=&quot;border-style:solid;&quot;&gt;&lt;p style=&quot;margin:0px;margin-left:4px;&quot;&gt;+ Id: int&lt;br&gt;+ Name: string&lt;/p&gt;&lt;hr size=&quot;1&quot; style=&quot;border-style:solid;&quot;&gt;&lt;p style=&quot;margin:0px;margin-left:4px;&quot;&gt;+ method(): Type&lt;/p&gt;" style="verticalAlign=top;align=left;overflow=fill;html=1;whiteSpace=wrap;" parent="p9DvUtl9EfDqDqhkNEsf-13" vertex="1">
          <mxGeometry x="233" y="60" width="160" height="90" as="geometry" />
        </mxCell>
        <mxCell id="p9DvUtl9EfDqDqhkNEsf-17" value="" style="group" parent="1" vertex="1" connectable="0">
          <mxGeometry x="120" y="-600" width="532" height="380" as="geometry" />
        </mxCell>
        <mxCell id="p9DvUtl9EfDqDqhkNEsf-3" value="" style="shape=folder;fontStyle=1;spacingTop=10;tabWidth=40;tabHeight=14;tabPosition=left;html=1;whiteSpace=wrap;" parent="p9DvUtl9EfDqDqhkNEsf-17" vertex="1">
          <mxGeometry width="532" height="380" as="geometry" />
        </mxCell>
        <mxCell id="p9DvUtl9EfDqDqhkNEsf-16" value="Тренеры" style="text;align=center;fontStyle=1;verticalAlign=middle;spacingLeft=3;spacingRight=3;strokeColor=none;rotatable=0;points=[[0,0.5],[1,0.5]];portConstraint=eastwest;html=1;" parent="p9DvUtl9EfDqDqhkNEsf-17" vertex="1">
          <mxGeometry x="40" y="20" width="80" height="26" as="geometry" />
        </mxCell>
        <mxCell id="Pu5n7XR0rAZYAUTgf-Lo-2" value="&lt;p style=&quot;margin:0px;margin-top:4px;text-align:center;&quot;&gt;&lt;b&gt;TrainerAssignment&lt;/b&gt;&lt;/p&gt;&lt;hr size=&quot;1&quot; style=&quot;border-style:solid;&quot;&gt;&lt;p style=&quot;margin:0px;margin-left:4px;&quot;&gt;+ Id: int&lt;br&gt;+ TrainderId: int&lt;br&gt;+ UserId: int&lt;/p&gt;&lt;hr size=&quot;1&quot; style=&quot;border-style:solid;&quot;&gt;&lt;p style=&quot;margin:0px;margin-left:4px;&quot;&gt;+ method(): Type&lt;/p&gt;" style="verticalAlign=top;align=left;overflow=fill;html=1;whiteSpace=wrap;" vertex="1" parent="p9DvUtl9EfDqDqhkNEsf-17">
          <mxGeometry x="40" y="70" width="160" height="190" as="geometry" />
        </mxCell>
        <mxCell id="p9DvUtl9EfDqDqhkNEsf-20" value="" style="group" parent="1" vertex="1" connectable="0">
          <mxGeometry x="827" y="-600" width="518" height="370" as="geometry" />
        </mxCell>
        <mxCell id="p9DvUtl9EfDqDqhkNEsf-4" value="" style="shape=folder;fontStyle=1;spacingTop=10;tabWidth=40;tabHeight=14;tabPosition=left;html=1;whiteSpace=wrap;" parent="p9DvUtl9EfDqDqhkNEsf-20" vertex="1">
          <mxGeometry width="518" height="370" as="geometry" />
        </mxCell>
        <mxCell id="p9DvUtl9EfDqDqhkNEsf-19" value="Прогресс тренировок" style="text;align=center;fontStyle=1;verticalAlign=middle;spacingLeft=3;spacingRight=3;strokeColor=none;rotatable=0;points=[[0,0.5],[1,0.5]];portConstraint=eastwest;html=1;" parent="p9DvUtl9EfDqDqhkNEsf-20" vertex="1">
          <mxGeometry x="43" y="20" width="145" height="26" as="geometry" />
        </mxCell>
      </root>
    </mxGraphModel>
  </diagram>
</mxfile>
